<svg width="615" height="453" viewBox="0 0 615 453" fill="none" xmlns="http://www.w3.org/2000/svg">
<g clip-path="url(#clip0_11_1514)">
<path d="M358.236 79.8586C369.763 79.8586 379.107 70.3955 379.107 58.7223C379.107 47.049 369.763 37.5859 358.236 37.5859C346.71 37.5859 337.366 47.049 337.366 58.7223C337.366 70.3955 346.71 79.8586 358.236 79.8586Z" fill="#67CDBB"/>
<path d="M520.132 393.546C551.153 369.617 565.969 329.406 556.694 291.048C556.463 290.095 556.22 289.144 555.964 288.195C549.814 265.426 534.601 243.786 512.427 236.51C493.809 230.402 473.487 235.099 454.064 232.67C415.935 227.901 386.374 196.657 365.575 163.944C344.775 131.23 328.79 94.6125 301.152 67.5866C255.595 23.0389 181.28 13.4478 124.796 42.445C68.3117 71.4422 32.3319 135.775 33.8663 199.891C35.4008 264.006 72.9839 325.306 127.564 357.829C147.614 369.776 170.805 378.24 193.884 375.279C213.909 372.709 232.104 361.811 252.036 358.576C283.372 353.489 314.509 367.838 341.612 384.559C368.716 401.28 394.896 421.1 425.695 428.851C455.601 436.378 492.652 414.744 520.132 393.546Z" fill="#909BFC"/>
<path d="M475.562 43.7913C474.882 43.3322 474.195 42.8968 473.514 42.4535C453.857 29.7212 432.788 19.3777 410.742 11.6365L405.63 83.0548H373.224V1.2111C371.184 0.783639 369.128 0.379923 367.072 -4.57764e-05V83.0548H328.562C307.361 83.0548 287.029 74.5254 272.038 59.343C257.047 44.1606 248.625 23.5689 248.625 2.09779V2.09772C246.561 2.54893 244.513 3.03181 242.465 3.54635V83.0548H211.099L206.229 14.9533C183.573 23.753 162.065 35.325 142.183 49.4117C141.839 49.6492 141.495 49.8946 141.159 50.1321C139.431 51.3591 137.727 52.6098 136.031 53.8764V326.338H228.474L226.841 303.421L217.852 177.596H398.869L389.88 303.421L388.247 326.338H479.666V46.5461C478.306 45.6121 476.938 44.6938 475.562 43.7913ZM242.466 156.816H216.367L211.544 89.2926H242.466V156.816ZM367.073 156.816H323.239V155.478C323.239 154.835 323.114 154.198 322.87 153.604C322.627 153.01 322.271 152.471 321.821 152.016C321.372 151.562 320.839 151.202 320.252 150.956C319.665 150.711 319.036 150.585 318.401 150.586H299.344C298.71 150.586 298.082 150.712 297.496 150.958C296.909 151.204 296.377 151.564 295.928 152.019C295.48 152.473 295.124 153.012 294.881 153.606C294.639 154.2 294.514 154.836 294.514 155.478V156.816H248.625V89.2926H367.073V156.816ZM373.224 156.816V89.2926H405.185L400.362 156.816H373.224Z" fill="#013545"/>
<path d="M0 343.785C6.79019 351.933 14.1346 359.591 21.9794 366.702L593.021 367.494C600.865 360.383 608.21 352.725 615 344.577L0 343.785Z" fill="#013545"/>
<path d="M387.242 270.404V338.248C387.242 339.112 387.582 339.941 388.185 340.552C388.789 341.164 389.607 341.507 390.461 341.508H489.731C490.585 341.508 491.403 341.164 492.007 340.552C492.611 339.941 492.95 339.112 492.951 338.248V270.404C492.949 269.54 492.609 268.712 492.005 268.102C491.402 267.492 490.584 267.148 489.731 267.147H390.461C389.608 267.148 388.79 267.492 388.187 268.102C387.584 268.713 387.244 269.54 387.242 270.404V270.404Z" fill="#013545"/>
<path d="M389.57 271.248V337.411C389.571 337.873 389.753 338.315 390.075 338.642C390.398 338.969 390.835 339.152 391.291 339.153H488.905C489.361 339.152 489.798 338.969 490.121 338.642C490.443 338.315 490.625 337.873 490.626 337.411V271.248C490.626 270.786 490.444 270.342 490.122 270.015C489.799 269.687 489.362 269.503 488.905 269.502H391.291C390.834 269.503 390.397 269.687 390.074 270.015C389.752 270.342 389.57 270.786 389.57 271.248V271.248Z" fill="#004368"/>
<path d="M385.165 351.479C385.347 351.71 385.578 351.896 385.842 352.023C386.105 352.151 386.393 352.216 386.684 352.215H492.98C493.27 352.215 493.557 352.149 493.819 352.022C494.082 351.895 494.313 351.711 494.496 351.482C494.679 351.253 494.81 350.986 494.878 350.7C494.946 350.414 494.951 350.116 494.891 349.828L493.241 341.89C493.173 341.566 493.026 341.265 492.813 341.014C492.6 340.762 492.329 340.569 492.024 340.451C491.802 340.363 491.567 340.318 491.329 340.319H388.328C388.09 340.318 387.855 340.363 387.634 340.451C387.328 340.569 387.057 340.762 386.844 341.014C386.632 341.265 386.484 341.566 386.416 341.89L384.766 349.828C384.707 350.116 384.713 350.413 384.782 350.699C384.851 350.985 384.982 351.251 385.165 351.479V351.479Z" fill="#001D26"/>
<path d="M487.682 343.737H490.193C490.404 343.737 490.574 343.564 490.574 343.351V342.134C490.574 341.921 490.404 341.748 490.193 341.748H487.682C487.472 341.748 487.301 341.921 487.301 342.134V343.351C487.301 343.564 487.472 343.737 487.682 343.737Z" fill="#013545"/>
<path d="M481.135 343.737H483.645C483.856 343.737 484.027 343.564 484.027 343.351V342.134C484.027 341.921 483.856 341.748 483.645 341.748H481.135C480.924 341.748 480.753 341.921 480.753 342.134V343.351C480.753 343.564 480.924 343.737 481.135 343.737Z" fill="#013545"/>
<path d="M474.587 343.737H477.098C477.308 343.737 477.479 343.564 477.479 343.351V342.134C477.479 341.921 477.308 341.748 477.098 341.748H474.587C474.376 341.748 474.205 341.921 474.205 342.134V343.351C474.205 343.564 474.376 343.737 474.587 343.737Z" fill="#013545"/>
<path d="M468.039 343.737H470.55C470.761 343.737 470.932 343.564 470.932 343.351V342.134C470.932 341.921 470.761 341.748 470.55 341.748H468.039C467.829 341.748 467.658 341.921 467.658 342.134V343.351C467.658 343.564 467.829 343.737 468.039 343.737Z" fill="#013545"/>
<path d="M461.492 343.737H464.002C464.213 343.737 464.384 343.564 464.384 343.351V342.134C464.384 341.921 464.213 341.748 464.002 341.748H461.492C461.281 341.748 461.11 341.921 461.11 342.134V343.351C461.11 343.564 461.281 343.737 461.492 343.737Z" fill="#013545"/>
<path d="M454.944 343.737H457.455C457.665 343.737 457.836 343.564 457.836 343.351V342.134C457.836 341.921 457.665 341.748 457.455 341.748H454.944C454.733 341.748 454.562 341.921 454.562 342.134V343.351C454.562 343.564 454.733 343.737 454.944 343.737Z" fill="#013545"/>
<path d="M448.396 343.737H450.907C451.118 343.737 451.288 343.564 451.288 343.351V342.134C451.288 341.921 451.118 341.748 450.907 341.748H448.396C448.185 341.748 448.015 341.921 448.015 342.134V343.351C448.015 343.564 448.185 343.737 448.396 343.737Z" fill="#013545"/>
<path d="M441.849 343.737H444.359C444.57 343.737 444.741 343.564 444.741 343.351V342.134C444.741 341.921 444.57 341.748 444.359 341.748H441.849C441.638 341.748 441.467 341.921 441.467 342.134V343.351C441.467 343.564 441.638 343.737 441.849 343.737Z" fill="#013545"/>
<path d="M435.301 343.737H437.812C438.022 343.737 438.193 343.564 438.193 343.351V342.134C438.193 341.921 438.022 341.748 437.812 341.748H435.301C435.09 341.748 434.919 341.921 434.919 342.134V343.351C434.919 343.564 435.09 343.737 435.301 343.737Z" fill="#013545"/>
<path d="M428.753 343.737H431.264C431.475 343.737 431.645 343.564 431.645 343.351V342.134C431.645 341.921 431.475 341.748 431.264 341.748H428.753C428.542 341.748 428.372 341.921 428.372 342.134V343.351C428.372 343.564 428.542 343.737 428.753 343.737Z" fill="#013545"/>
<path d="M422.205 343.737H424.716C424.927 343.737 425.098 343.564 425.098 343.351V342.134C425.098 341.921 424.927 341.748 424.716 341.748H422.205C421.995 341.748 421.824 341.921 421.824 342.134V343.351C421.824 343.564 421.995 343.737 422.205 343.737Z" fill="#013545"/>
<path d="M415.658 343.737H418.168C418.379 343.737 418.55 343.564 418.55 343.351V342.134C418.55 341.921 418.379 341.748 418.168 341.748H415.658C415.447 341.748 415.276 341.921 415.276 342.134V343.351C415.276 343.564 415.447 343.737 415.658 343.737Z" fill="#013545"/>
<path d="M409.11 343.737H411.621C411.832 343.737 412.002 343.564 412.002 343.351V342.134C412.002 341.921 411.832 341.748 411.621 341.748H409.11C408.899 341.748 408.729 341.921 408.729 342.134V343.351C408.729 343.564 408.899 343.737 409.11 343.737Z" fill="#013545"/>
<path d="M402.562 343.737H405.073C405.284 343.737 405.455 343.564 405.455 343.351V342.134C405.455 341.921 405.284 341.748 405.073 341.748H402.562C402.352 341.748 402.181 341.921 402.181 342.134V343.351C402.181 343.564 402.352 343.737 402.562 343.737Z" fill="#013545"/>
<path d="M396.015 343.737H398.526C398.736 343.737 398.907 343.564 398.907 343.351V342.134C398.907 341.921 398.736 341.748 398.526 341.748H396.015C395.804 341.748 395.633 341.921 395.633 342.134V343.351C395.633 343.564 395.804 343.737 396.015 343.737Z" fill="#013545"/>
<path d="M389.467 343.737H391.978C392.188 343.737 392.359 343.564 392.359 343.351V342.134C392.359 341.921 392.188 341.748 391.978 341.748H389.467C389.256 341.748 389.085 341.921 389.085 342.134V343.351C389.085 343.564 389.256 343.737 389.467 343.737Z" fill="#013545"/>
<path d="M487.76 347.053H490.27C490.481 347.053 490.652 346.88 490.652 346.667V345.45C490.652 345.237 490.481 345.064 490.27 345.064H487.76C487.549 345.064 487.378 345.237 487.378 345.45V346.667C487.378 346.88 487.549 347.053 487.76 347.053Z" fill="#013545"/>
<path d="M481.212 347.053H483.723C483.933 347.053 484.104 346.88 484.104 346.667V345.45C484.104 345.237 483.933 345.064 483.723 345.064H481.212C481.001 345.064 480.83 345.237 480.83 345.45V346.667C480.83 346.88 481.001 347.053 481.212 347.053Z" fill="#013545"/>
<path d="M474.664 347.053H477.175C477.386 347.053 477.557 346.88 477.557 346.667V345.45C477.557 345.237 477.386 345.064 477.175 345.064H474.664C474.454 345.064 474.283 345.237 474.283 345.45V346.667C474.283 346.88 474.454 347.053 474.664 347.053Z" fill="#013545"/>
<path d="M468.117 347.053H470.627C470.838 347.053 471.009 346.88 471.009 346.667V345.45C471.009 345.237 470.838 345.064 470.627 345.064H468.117C467.906 345.064 467.735 345.237 467.735 345.45V346.667C467.735 346.88 467.906 347.053 468.117 347.053Z" fill="#013545"/>
<path d="M461.569 347.053H464.08C464.29 347.053 464.461 346.88 464.461 346.667V345.45C464.461 345.237 464.29 345.064 464.08 345.064H461.569C461.358 345.064 461.187 345.237 461.187 345.45V346.667C461.187 346.88 461.358 347.053 461.569 347.053Z" fill="#013545"/>
<path d="M455.021 347.053H457.532C457.743 347.053 457.913 346.88 457.913 346.667V345.45C457.913 345.237 457.743 345.064 457.532 345.064H455.021C454.81 345.064 454.64 345.237 454.64 345.45V346.667C454.64 346.88 454.81 347.053 455.021 347.053Z" fill="#013545"/>
<path d="M448.474 347.053H450.984C451.195 347.053 451.366 346.88 451.366 346.667V345.45C451.366 345.237 451.195 345.064 450.984 345.064H448.474C448.263 345.064 448.092 345.237 448.092 345.45V346.667C448.092 346.88 448.263 347.053 448.474 347.053Z" fill="#013545"/>
<path d="M441.926 347.053H444.437C444.647 347.053 444.818 346.88 444.818 346.667V345.45C444.818 345.237 444.647 345.064 444.437 345.064H441.926C441.715 345.064 441.544 345.237 441.544 345.45V346.667C441.544 346.88 441.715 347.053 441.926 347.053Z" fill="#013545"/>
<path d="M435.378 347.053H437.889C438.1 347.053 438.27 346.88 438.27 346.667V345.45C438.27 345.237 438.1 345.064 437.889 345.064H435.378C435.167 345.064 434.997 345.237 434.997 345.45V346.667C434.997 346.88 435.167 347.053 435.378 347.053Z" fill="#013545"/>
<path d="M428.831 347.053H431.341C431.552 347.053 431.723 346.88 431.723 346.667V345.45C431.723 345.237 431.552 345.064 431.341 345.064H428.831C428.62 345.064 428.449 345.237 428.449 345.45V346.667C428.449 346.88 428.62 347.053 428.831 347.053Z" fill="#013545"/>
<path d="M422.283 347.053H424.794C425.004 347.053 425.175 346.88 425.175 346.667V345.45C425.175 345.237 425.004 345.064 424.794 345.064H422.283C422.072 345.064 421.901 345.237 421.901 345.45V346.667C421.901 346.88 422.072 347.053 422.283 347.053Z" fill="#013545"/>
<path d="M415.735 347.053H418.246C418.457 347.053 418.627 346.88 418.627 346.667V345.45C418.627 345.237 418.457 345.064 418.246 345.064H415.735C415.524 345.064 415.354 345.237 415.354 345.45V346.667C415.354 346.88 415.524 347.053 415.735 347.053Z" fill="#013545"/>
<path d="M409.188 347.053H411.698C411.909 347.053 412.08 346.88 412.08 346.667V345.45C412.08 345.237 411.909 345.064 411.698 345.064H409.188C408.977 345.064 408.806 345.237 408.806 345.45V346.667C408.806 346.88 408.977 347.053 409.188 347.053Z" fill="#013545"/>
<path d="M402.64 347.053H405.15C405.361 347.053 405.532 346.88 405.532 346.667V345.45C405.532 345.237 405.361 345.064 405.15 345.064H402.64C402.429 345.064 402.258 345.237 402.258 345.45V346.667C402.258 346.88 402.429 347.053 402.64 347.053Z" fill="#013545"/>
<path d="M396.092 347.053H398.603C398.814 347.053 398.984 346.88 398.984 346.667V345.45C398.984 345.237 398.814 345.064 398.603 345.064H396.092C395.881 345.064 395.711 345.237 395.711 345.45V346.667C395.711 346.88 395.881 347.053 396.092 347.053Z" fill="#013545"/>
<path d="M389.545 347.053H392.055C392.266 347.053 392.437 346.88 392.437 346.667V345.45C392.437 345.237 392.266 345.064 392.055 345.064H389.545C389.334 345.064 389.163 345.237 389.163 345.45V346.667C389.163 346.88 389.334 347.053 389.545 347.053Z" fill="#013545"/>
<path d="M433.414 351.032H458.842C459.052 351.032 459.223 350.859 459.223 350.645V349.429C459.223 349.215 459.052 349.042 458.842 349.042H433.414C433.203 349.042 433.032 349.215 433.032 349.429V350.645C433.032 350.859 433.203 351.032 433.414 351.032Z" fill="#013545"/>
<path d="M406.474 283.977H404.252C403.578 283.977 403.031 284.53 403.031 285.212C403.031 285.895 403.578 286.448 404.252 286.448H406.474C407.148 286.448 407.694 285.895 407.694 285.212C407.694 284.53 407.148 283.977 406.474 283.977Z" fill="#F2FCFF"/>
<path d="M431.895 283.977H429.672C428.999 283.977 428.452 284.53 428.452 285.212C428.452 285.895 428.999 286.448 429.672 286.448H431.895C432.569 286.448 433.115 285.895 433.115 285.212C433.115 284.53 432.569 283.977 431.895 283.977Z" fill="#F2FCFF"/>
<path d="M439.098 283.977H436.875C436.201 283.977 435.655 284.53 435.655 285.212C435.655 285.895 436.201 286.448 436.875 286.448H439.098C439.772 286.448 440.318 285.895 440.318 285.212C440.318 284.53 439.772 283.977 439.098 283.977Z" fill="#F2FCFF"/>
<path d="M424.981 283.771H411.166C410.492 283.771 409.946 284.324 409.946 285.006C409.946 285.689 410.492 286.242 411.166 286.242H424.981C425.654 286.242 426.201 285.689 426.201 285.006C426.201 284.324 425.654 283.771 424.981 283.771Z" fill="#F2FCFF"/>
<path d="M458.875 283.771H445.061C444.387 283.771 443.84 284.324 443.84 285.006C443.84 285.689 444.387 286.242 445.061 286.242H458.875C459.549 286.242 460.095 285.689 460.095 285.006C460.095 284.324 459.549 283.771 458.875 283.771Z" fill="#F2FCFF"/>
<path d="M413.253 289.555H411.03C410.357 289.555 409.81 290.108 409.81 290.791C409.81 291.473 410.357 292.026 411.03 292.026H413.253C413.927 292.026 414.473 291.473 414.473 290.791C414.473 290.108 413.927 289.555 413.253 289.555Z" fill="#F2FCFF"/>
<path d="M438.674 289.555H436.451C435.777 289.555 435.231 290.108 435.231 290.791C435.231 291.473 435.777 292.026 436.451 292.026H438.674C439.348 292.026 439.894 291.473 439.894 290.791C439.894 290.108 439.348 289.555 438.674 289.555Z" fill="#F2FCFF"/>
<path d="M445.877 289.555H443.654C442.98 289.555 442.434 290.108 442.434 290.791C442.434 291.473 442.98 292.026 443.654 292.026H445.877C446.55 292.026 447.097 291.473 447.097 290.791C447.097 290.108 446.55 289.555 445.877 289.555Z" fill="#F2FCFF"/>
<path d="M431.759 289.349H417.945C417.271 289.349 416.725 289.902 416.725 290.585C416.725 291.267 417.271 291.82 417.945 291.82H431.759C432.433 291.82 432.98 291.267 432.98 290.585C432.98 289.902 432.433 289.349 431.759 289.349Z" fill="#F2FCFF"/>
<path d="M465.654 289.349H451.839C451.166 289.349 450.619 289.902 450.619 290.585C450.619 291.267 451.166 291.82 451.839 291.82H465.654C466.328 291.82 466.874 291.267 466.874 290.585C466.874 289.902 466.328 289.349 465.654 289.349Z" fill="#F2FCFF"/>
<path d="M420.032 295.133H417.809C417.135 295.133 416.589 295.686 416.589 296.369C416.589 297.051 417.135 297.605 417.809 297.605H420.032C420.706 297.605 421.252 297.051 421.252 296.369C421.252 295.686 420.706 295.133 420.032 295.133Z" fill="#F2FCFF"/>
<path d="M445.453 295.133H443.23C442.556 295.133 442.01 295.686 442.01 296.369C442.01 297.051 442.556 297.605 443.23 297.605H445.453C446.127 297.605 446.673 297.051 446.673 296.369C446.673 295.686 446.127 295.133 445.453 295.133Z" fill="#F2FCFF"/>
<path d="M452.655 295.133H450.433C449.759 295.133 449.213 295.686 449.213 296.369C449.213 297.051 449.759 297.605 450.433 297.605H452.655C453.329 297.605 453.876 297.051 453.876 296.369C453.876 295.686 453.329 295.133 452.655 295.133Z" fill="#F2FCFF"/>
<path d="M438.538 294.927H424.724C424.05 294.927 423.504 295.48 423.504 296.163C423.504 296.845 424.05 297.399 424.724 297.399H438.538C439.212 297.399 439.759 296.845 439.759 296.163C439.759 295.48 439.212 294.927 438.538 294.927Z" fill="#F2FCFF"/>
<path d="M472.433 294.927H458.618C457.945 294.927 457.398 295.48 457.398 296.163C457.398 296.845 457.945 297.399 458.618 297.399H472.433C473.107 297.399 473.653 296.845 473.653 296.163C473.653 295.48 473.107 294.927 472.433 294.927Z" fill="#F2FCFF"/>
<path d="M426.811 300.711H424.588C423.914 300.711 423.368 301.264 423.368 301.947C423.368 302.629 423.914 303.183 424.588 303.183H426.811C427.485 303.183 428.031 302.629 428.031 301.947C428.031 301.264 427.485 300.711 426.811 300.711Z" fill="#F2FCFF"/>
<path d="M452.232 300.711H450.009C449.335 300.711 448.789 301.264 448.789 301.947C448.789 302.629 449.335 303.183 450.009 303.183H452.232C452.906 303.183 453.452 302.629 453.452 301.947C453.452 301.264 452.906 300.711 452.232 300.711Z" fill="#F2FCFF"/>
<path d="M459.434 300.711H457.212C456.538 300.711 455.991 301.264 455.991 301.947C455.991 302.629 456.538 303.183 457.212 303.183H459.434C460.108 303.183 460.655 302.629 460.655 301.947C460.655 301.264 460.108 300.711 459.434 300.711Z" fill="#F2FCFF"/>
<path d="M445.317 300.505H431.503C430.829 300.505 430.283 301.058 430.283 301.741C430.283 302.423 430.829 302.977 431.503 302.977H445.317C445.991 302.977 446.537 302.423 446.537 301.741C446.537 301.058 445.991 300.505 445.317 300.505Z" fill="#F2FCFF"/>
<path d="M431.895 322.892H429.672C428.999 322.892 428.452 323.445 428.452 324.128C428.452 324.81 428.999 325.364 429.672 325.364H431.895C432.569 325.364 433.115 324.81 433.115 324.128C433.115 323.445 432.569 322.892 431.895 322.892Z" fill="#F2FCFF"/>
<path d="M439.098 322.892H436.875C436.201 322.892 435.655 323.445 435.655 324.128C435.655 324.81 436.201 325.364 436.875 325.364H439.098C439.772 325.364 440.318 324.81 440.318 324.128C440.318 323.445 439.772 322.892 439.098 322.892Z" fill="#F2FCFF"/>
<path d="M458.875 323.098H445.061C444.387 323.098 443.84 323.651 443.84 324.334C443.84 325.016 444.387 325.57 445.061 325.57H458.875C459.549 325.57 460.095 325.016 460.095 324.334C460.095 323.651 459.549 323.098 458.875 323.098Z" fill="#F2FCFF"/>
<path d="M406.474 322.892H404.252C403.578 322.892 403.031 323.445 403.031 324.128C403.031 324.81 403.578 325.364 404.252 325.364H406.474C407.148 325.364 407.694 324.81 407.694 324.128C407.694 323.445 407.148 322.892 406.474 322.892Z" fill="#F2FCFF"/>
<path d="M424.981 323.098H411.166C410.492 323.098 409.946 323.651 409.946 324.334C409.946 325.016 410.492 325.57 411.166 325.57H424.981C425.654 325.57 426.201 325.016 426.201 324.334C426.201 323.651 425.654 323.098 424.981 323.098Z" fill="#F2FCFF"/>
<path d="M413.253 317.314H411.03C410.357 317.314 409.81 317.867 409.81 318.55C409.81 319.232 410.357 319.786 411.03 319.786H413.253C413.927 319.786 414.473 319.232 414.473 318.55C414.473 317.867 413.927 317.314 413.253 317.314Z" fill="#F2FCFF"/>
<path d="M438.674 317.314H436.451C435.777 317.314 435.231 317.867 435.231 318.55C435.231 319.232 435.777 319.786 436.451 319.786H438.674C439.348 319.786 439.894 319.232 439.894 318.55C439.894 317.867 439.348 317.314 438.674 317.314Z" fill="#F2FCFF"/>
<path d="M445.877 317.314H443.654C442.98 317.314 442.434 317.867 442.434 318.55C442.434 319.232 442.98 319.786 443.654 319.786H445.877C446.55 319.786 447.097 319.232 447.097 318.55C447.097 317.867 446.55 317.314 445.877 317.314Z" fill="#F2FCFF"/>
<path d="M431.759 317.52H417.945C417.271 317.52 416.725 318.073 416.725 318.756C416.725 319.438 417.271 319.992 417.945 319.992H431.759C432.433 319.992 432.98 319.438 432.98 318.756C432.98 318.073 432.433 317.52 431.759 317.52Z" fill="#F2FCFF"/>
<path d="M420.032 311.736H417.809C417.135 311.736 416.589 312.289 416.589 312.972C416.589 313.654 417.135 314.207 417.809 314.207H420.032C420.706 314.207 421.252 313.654 421.252 312.972C421.252 312.289 420.706 311.736 420.032 311.736Z" fill="#F2FCFF"/>
<path d="M445.453 311.736H443.23C442.556 311.736 442.01 312.289 442.01 312.972C442.01 313.654 442.556 314.207 443.23 314.207H445.453C446.127 314.207 446.673 313.654 446.673 312.972C446.673 312.289 446.127 311.736 445.453 311.736Z" fill="#F2FCFF"/>
<path d="M452.655 311.736H450.433C449.759 311.736 449.213 312.289 449.213 312.972C449.213 313.654 449.759 314.207 450.433 314.207H452.655C453.329 314.207 453.876 313.654 453.876 312.972C453.876 312.289 453.329 311.736 452.655 311.736Z" fill="#F2FCFF"/>
<path d="M438.538 311.942H424.724C424.05 311.942 423.504 312.495 423.504 313.178C423.504 313.86 424.05 314.413 424.724 314.413H438.538C439.212 314.413 439.759 313.86 439.759 313.178C439.759 312.495 439.212 311.942 438.538 311.942Z" fill="#F2FCFF"/>
<path d="M426.811 306.158H424.588C423.914 306.158 423.368 306.711 423.368 307.394C423.368 308.076 423.914 308.629 424.588 308.629H426.811C427.485 308.629 428.031 308.076 428.031 307.394C428.031 306.711 427.485 306.158 426.811 306.158Z" fill="#F2FCFF"/>
<path d="M452.232 306.158H450.009C449.335 306.158 448.789 306.711 448.789 307.394C448.789 308.076 449.335 308.629 450.009 308.629H452.232C452.906 308.629 453.452 308.076 453.452 307.394C453.452 306.711 452.906 306.158 452.232 306.158Z" fill="#F2FCFF"/>
<path d="M459.434 306.158H457.212C456.538 306.158 455.991 306.711 455.991 307.394C455.991 308.076 456.538 308.629 457.212 308.629H459.434C460.108 308.629 460.655 308.076 460.655 307.394C460.655 306.711 460.108 306.158 459.434 306.158Z" fill="#F2FCFF"/>
<path d="M445.317 306.364H431.503C430.829 306.364 430.283 306.917 430.283 307.6C430.283 308.282 430.829 308.835 431.503 308.835H445.317C445.991 308.835 446.537 308.282 446.537 307.6C446.537 306.917 445.991 306.364 445.317 306.364Z" fill="#F2FCFF"/>
<path d="M394.657 388.266L384.223 371.562L416.975 345.12L430.493 329.952C432.249 327.982 434.486 326.512 436.978 325.691C439.471 324.87 442.133 324.726 444.698 325.273C447.262 325.82 449.641 327.039 451.595 328.809C453.548 330.579 455.01 332.837 455.832 335.357C457.05 339.092 456.788 343.161 455.101 346.704C453.414 350.248 450.433 352.989 446.788 354.348L425.412 362.324L394.657 388.266Z" fill="#D8917A"/>
<path d="M149.83 267.15V348.337H205.99V267.15C205.991 266.566 205.807 265.998 205.465 265.527C205.123 265.057 204.642 264.71 204.091 264.538C203.831 264.451 203.559 264.408 203.286 264.411H152.542C152.187 264.411 151.834 264.481 151.505 264.618C151.177 264.756 150.878 264.957 150.626 265.212C150.374 265.466 150.174 265.768 150.037 266.101C149.901 266.433 149.83 266.79 149.83 267.15V267.15ZM171.747 295.046C171.762 293.446 172.4 291.916 173.522 290.789C174.645 289.663 176.162 289.031 177.742 289.031C179.322 289.031 180.839 289.663 181.962 290.789C183.084 291.916 183.722 293.446 183.737 295.046V304.466C183.729 306.071 183.094 307.608 181.97 308.74C180.847 309.872 179.327 310.507 177.742 310.507C176.157 310.507 174.637 309.872 173.514 308.74C172.39 307.608 171.755 306.071 171.747 304.466V295.046Z" fill="#001D26"/>
<path d="M149.658 345.741V353.569C149.659 353.975 149.819 354.364 150.101 354.651C150.383 354.939 150.766 355.102 151.167 355.105H204.654C205.054 355.103 205.438 354.94 205.721 354.653C206.003 354.365 206.162 353.975 206.162 353.569V345.741H149.658Z" fill="#013545"/>
<path d="M61.4828 144.832V293.067C61.4843 294.956 62.2259 296.768 63.5448 298.103C64.8637 299.439 66.6522 300.19 68.5174 300.192H285.419C287.284 300.19 289.073 299.439 290.392 298.103C291.711 296.768 292.452 294.956 292.454 293.067V144.832C292.449 142.945 291.706 141.136 290.388 139.802C289.069 138.468 287.283 137.718 285.419 137.716H68.5174C66.6538 137.718 64.8671 138.468 63.5486 139.802C62.23 141.136 61.4872 142.945 61.4828 144.832Z" fill="#013545"/>
<path d="M66.5712 146.676V291.239C66.5729 292.248 66.9695 293.215 67.6742 293.929C68.3789 294.643 69.3342 295.045 70.3308 295.046H283.613C284.61 295.045 285.565 294.643 286.27 293.929C286.975 293.215 287.371 292.248 287.373 291.239V146.676C287.373 145.666 286.977 144.697 286.272 143.981C285.567 143.266 284.611 142.863 283.613 142.861H70.3308C69.333 142.863 68.3768 143.266 67.672 143.981C66.9672 144.697 66.5713 145.666 66.5712 146.676Z" fill="#F2FCFF"/>
<path d="M106.153 354.575C106.37 354.85 106.646 355.073 106.96 355.225C107.274 355.377 107.618 355.455 107.966 355.453H234.856C235.203 355.453 235.545 355.374 235.858 355.223C236.172 355.071 236.447 354.851 236.666 354.578C236.885 354.305 237.04 353.986 237.122 353.645C237.204 353.303 237.209 352.948 237.138 352.604L235.168 343.128C235.087 342.742 234.911 342.382 234.657 342.082C234.403 341.782 234.079 341.551 233.714 341.41C233.45 341.305 233.169 341.252 232.886 341.252H109.928C109.645 341.252 109.363 341.305 109.1 341.41C108.735 341.551 108.411 341.782 108.157 342.082C107.903 342.382 107.727 342.742 107.646 343.128L105.676 352.604C105.606 352.947 105.612 353.303 105.695 353.644C105.777 353.985 105.934 354.303 106.153 354.575Z" fill="#001D26"/>
<path d="M276.692 162.775H77.124C76.9166 162.77 76.7192 162.684 76.5741 162.533C76.4291 162.383 76.3478 162.181 76.3478 161.971C76.3478 161.761 76.4291 161.559 76.5741 161.409C76.7192 161.259 76.9166 161.172 77.124 161.168H276.692C276.899 161.172 277.097 161.259 277.242 161.409C277.387 161.559 277.468 161.761 277.468 161.971C277.468 162.181 277.387 162.383 277.242 162.533C277.097 162.684 276.899 162.77 276.692 162.775V162.775Z" fill="#013545"/>
<path d="M90.7089 157.064C93.2776 157.064 95.3599 154.908 95.3599 152.248C95.3599 149.589 93.2776 147.433 90.7089 147.433C88.1402 147.433 86.0579 149.589 86.0579 152.248C86.0579 154.908 88.1402 157.064 90.7089 157.064Z" fill="#013545"/>
<path d="M106.776 157.064C109.345 157.064 111.427 154.908 111.427 152.248C111.427 149.589 109.345 147.433 106.776 147.433C104.207 147.433 102.125 149.589 102.125 152.248C102.125 154.908 104.207 157.064 106.776 157.064Z" fill="#013545"/>
<path d="M122.843 157.064C125.412 157.064 127.494 154.908 127.494 152.248C127.494 149.589 125.412 147.433 122.843 147.433C120.275 147.433 118.192 149.589 118.192 152.248C118.192 154.908 120.275 157.064 122.843 157.064Z" fill="#013545"/>
<path d="M267.017 148.624H255.605C255.379 148.629 255.165 148.724 255.007 148.887C254.849 149.051 254.761 149.27 254.761 149.499C254.761 149.727 254.849 149.947 255.007 150.11C255.165 150.273 255.379 150.368 255.605 150.373H267.017C267.244 150.37 267.46 150.276 267.62 150.113C267.779 149.949 267.868 149.728 267.868 149.499C267.868 149.269 267.779 149.048 267.62 148.884C267.46 148.721 267.244 148.627 267.017 148.624Z" fill="#013545"/>
<path d="M267.017 151.909H255.605C255.379 151.914 255.164 152.008 255.006 152.172C254.848 152.335 254.76 152.555 254.76 152.784C254.76 153.012 254.848 153.232 255.006 153.396C255.164 153.559 255.379 153.653 255.605 153.658H267.017C267.244 153.656 267.461 153.562 267.621 153.399C267.78 153.235 267.87 153.014 267.87 152.784C267.87 152.554 267.78 152.333 267.621 152.169C267.461 152.005 267.244 151.912 267.017 151.909V151.909Z" fill="#013545"/>
<path d="M267.017 155.194H255.605C255.379 155.199 255.165 155.294 255.007 155.457C254.849 155.621 254.761 155.84 254.761 156.069C254.761 156.297 254.849 156.517 255.007 156.68C255.165 156.844 255.379 156.938 255.605 156.944H267.017C267.244 156.94 267.46 156.847 267.62 156.683C267.779 156.519 267.868 156.299 267.868 156.069C267.868 155.839 267.779 155.618 267.62 155.455C267.46 155.291 267.244 155.197 267.017 155.194V155.194Z" fill="#013545"/>
<path d="M542.133 349.176C542.478 350.192 543.131 351.071 543.999 351.687C544.868 352.303 545.906 352.624 546.966 352.605L567.673 352.065C568.741 352.044 569.773 351.674 570.616 351.009C571.458 350.345 572.066 349.422 572.348 348.379L575.278 316.645C576.318 317.122 577.449 317.358 578.591 317.335C579.582 317.31 580.559 317.087 581.465 316.679C582.371 316.272 583.19 315.688 583.873 314.96C584.557 314.232 585.092 313.375 585.448 312.438C585.804 311.501 585.975 310.501 585.95 309.497C585.925 308.493 585.705 307.504 585.303 306.586C584.901 305.668 584.324 304.839 583.605 304.147C582.886 303.455 582.04 302.913 581.115 302.552C580.189 302.191 579.203 302.019 578.212 302.044C577.755 302.042 577.3 302.09 576.854 302.187C576.369 301.655 575.78 301.233 575.124 300.946C574.468 300.659 573.759 300.515 573.045 300.522L541.193 301.355C540.929 301.365 540.666 301.398 540.407 301.454C539.709 301.586 539.046 301.868 538.464 302.28C537.883 302.693 537.395 303.228 537.034 303.848C536.673 304.467 536.447 305.158 536.372 305.874C536.297 306.59 536.374 307.313 536.598 307.996L542.133 349.176ZM575.879 314.491L577.964 306.929C578.201 306.055 578.207 305.134 577.98 304.258C578.081 304.257 578.17 304.209 578.272 304.208C579.701 304.179 581.084 304.724 582.118 305.725C583.151 306.726 583.75 308.102 583.783 309.55C583.817 310.997 583.282 312.4 582.296 313.449C581.31 314.498 579.954 315.108 578.524 315.146C577.6 315.175 576.686 314.949 575.879 314.491Z" fill="#001D26"/>
<path d="M540.407 301.454C541.086 305.383 548.715 308.146 557.889 307.666C566.325 307.272 573.223 304.272 574.486 300.717C574.019 300.576 573.532 300.511 573.045 300.522L541.193 301.355C540.929 301.365 540.666 301.398 540.407 301.454V301.454Z" fill="#013545"/>
<path d="M200.753 206.471H166.212C164.803 206.471 163.661 207.628 163.661 209.055V212.473C163.661 213.9 164.803 215.057 166.212 215.057H200.753C202.162 215.057 203.304 213.9 203.304 212.473V209.055C203.304 207.628 202.162 206.471 200.753 206.471Z" fill="#004368"/>
<path d="M220.886 223.642H146.078C144.669 223.642 143.527 224.799 143.527 226.226V229.644C143.527 231.071 144.669 232.228 146.078 232.228H220.886C222.295 232.228 223.438 231.071 223.438 229.644V226.226C223.438 224.799 222.295 223.642 220.886 223.642Z" fill="#E6E6E6"/>
<path d="M220.886 240.813H146.078C144.669 240.813 143.527 241.97 143.527 243.397V246.815C143.527 248.242 144.669 249.398 146.078 249.398H220.886C222.295 249.398 223.438 248.242 223.438 246.815V243.397C223.438 241.97 222.295 240.813 220.886 240.813Z" fill="#E6E6E6"/>
<path d="M227.228 298.312L227.397 298.854L227.406 298.872L232.506 314.575L238.374 332.672L249.412 366.68L249.519 371.963V371.981L250.34 414.478L248.066 420.239L250.625 429.685C250.625 429.685 249.448 415.407 243.135 423.606C239.559 428.266 235.378 433.034 231.945 437.504C236.947 439.554 242.029 441.408 247.192 443.067C248.307 443.428 249.43 443.771 250.554 444.114C250.794 444.187 251.035 444.259 251.276 444.331C268.389 449.457 286.082 452.337 303.919 452.901C304.846 452.928 305.756 452.946 306.639 452.964C306.951 452.973 307.254 452.982 307.557 452.982C308.556 452.991 309.545 453 310.544 453C312.559 453 314.565 452.97 316.563 452.91C331.346 452.488 346.043 450.475 360.405 446.905C360.307 440.899 360.04 433.883 359.656 426.388C359.478 422.712 355.475 418.73 355.234 414.883C355.064 411.993 358.658 409.275 358.47 406.34C357.258 388.271 355.742 395.207 354.619 382.411C354.503 381.156 354.396 379.955 354.298 378.808C353.575 370.59 353.076 365.452 353.076 365.452L357.873 334.83L365.408 286.753L364.828 285.787L364.177 285.462L324.436 265.541L322.278 259.942C321.65 258.329 320.559 256.943 319.146 255.963C317.733 254.983 316.064 254.454 314.351 254.442L288.172 254.334C286.814 254.328 285.473 254.65 284.262 255.273C283.051 255.897 282.004 256.804 281.209 257.919L274.12 267.861L227.228 298.312Z" fill="#013545"/>
<path d="M255.449 359.113L249.519 371.963L245.471 380.74L238.507 417.666L235.021 421.413L232.034 408.146L200.771 415.177C199.745 409.406 200.496 415.372 199.863 409.042C200.041 408.861 200.228 408.68 200.416 408.5C200.915 408.03 201.334 407.588 201.325 407.163C200.969 385.328 202.039 348.168 210.973 325.655C212.372 321.98 214.217 318.494 216.466 315.28C216.644 315.036 216.813 314.792 216.983 314.548C221.102 308.706 223.706 302.953 227.397 298.863V298.854C227.42 298.835 227.441 298.814 227.46 298.79C227.473 298.784 227.485 298.774 227.495 298.763L252.854 285.145L253.942 316.101L254.718 338.352L255.449 359.113Z" fill="#013545"/>
<path d="M346.887 362.763L354.294 378.812L356.879 384.402L363.841 421.323L367.316 425.062L370.31 411.798L371.717 411.506L397.087 406.185L404.482 429.969C406.148 427.157 406.805 423.848 406.34 420.602C405.876 417.356 404.319 414.371 401.933 412.154C401.428 411.691 401.007 411.241 401.019 410.814C401.44 385.132 399.889 338.237 385.881 318.936C381.432 312.811 378.763 306.71 374.879 302.448C374.867 302.436 374.867 302.424 374.855 302.424L365.404 286.752L364.827 285.79L364.178 285.461L346.887 362.763Z" fill="#013545"/>
<path d="M302.018 246.789C321.253 246.789 336.846 230.997 336.846 211.516C336.846 192.036 321.253 176.244 302.018 176.244C282.783 176.244 267.19 192.036 267.19 211.516C267.19 230.997 282.783 246.789 302.018 246.789Z" fill="#D8917A"/>
<path d="M349.092 186.879C348.822 186.587 348.497 186.353 348.136 186.191C347.774 186.029 347.385 185.943 346.99 185.937L347.513 184.464C347.684 184.001 347.73 183.499 347.647 183.011C347.564 182.524 347.354 182.067 347.039 181.688C346.724 181.31 346.315 181.023 345.855 180.857C345.394 180.691 344.898 180.652 344.418 180.744L342.511 181.116L342.691 179.826C342.76 179.345 342.704 178.855 342.529 178.402C342.354 177.95 342.066 177.552 341.693 177.247C341.32 176.942 340.875 176.74 340.401 176.662C339.928 176.584 339.443 176.632 338.994 176.802C338.585 176.965 338.145 177.033 337.707 177.001C337.269 176.97 336.843 176.839 336.461 176.62C336.078 176.406 335.745 176.111 335.485 175.754C335.226 175.397 335.047 174.988 334.96 174.553L334.296 171.308L334.226 171.134C330.99 165.672 324.768 161.698 317.155 160.241C310.378 158.935 303.43 159.6 296.731 160.225C294.073 160.479 291.072 160.764 288.571 162.315C286.445 163.645 288.203 160.816 288.571 163.5C281.966 161.45 271.328 171.031 267.819 176.192C263.66 182.335 262.98 190.029 262.871 196.045C262.574 210.278 265.474 221.923 271.469 230.662C271.906 231.295 272.016 232.617 272.884 233.061L272.704 232.768C273.673 233.259 274.658 234.05 274.29 234.897C273.235 237.335 280.246 242.726 285.186 244.507C294.198 247.761 306.181 247.484 314.607 246.312L314.904 244.294C317.944 243.874 320.086 243.074 320.688 241.824C321.751 240.905 322.658 240.082 323.447 239.322L323.455 239.314C323.47 239.299 323.502 239.275 323.517 239.259C327.324 235.562 328.207 233.457 328.606 230.251C328.989 227.108 327.696 218.874 327 216C341.648 218.296 321.845 205.244 335.492 201.745C335.648 201.696 335.808 201.656 335.969 201.626C336.367 201.531 336.766 201.436 337.149 201.325C338.995 200.818 340.763 200.053 342.401 199.054C346.216 196.702 347.474 193.584 349.444 190.069C349.728 189.568 349.847 188.989 349.784 188.415C349.721 187.842 349.478 187.303 349.092 186.879Z" fill="#001D26"/>
<path d="M425.199 365.274C425.191 366.659 425.176 368.599 425.113 370.997C425.105 371.33 425.098 371.67 425.09 372.018C424.988 376.428 424.887 380.124 424.722 384.233C424.715 384.518 424.707 384.795 424.691 385.08C424.472 390.811 424.128 397.484 423.534 408.052C422.432 427.573 420.509 410.736 418.579 417.583C418.485 417.923 418.383 418.327 418.29 418.802C417.997 420.525 417.504 422.207 416.82 423.813C415.796 424.43 414.741 425.024 413.701 425.618C410.739 427.288 407.73 428.895 404.697 430.423C402.993 431.278 401.282 432.117 399.562 432.924C399.288 433.051 399.023 433.178 398.757 433.296C389.951 437.421 380.876 440.928 371.595 443.793C369.782 444.347 367.976 444.885 366.147 445.384C364.24 445.922 362.333 446.429 360.402 446.904C346.04 450.475 331.344 452.489 316.561 452.912C314.568 452.975 312.559 452.999 310.542 452.999C309.542 452.999 308.557 452.991 307.557 452.983C307.252 452.983 306.947 452.975 306.642 452.968C305.759 452.944 304.844 452.928 303.922 452.904C286.084 452.341 268.392 449.46 251.279 444.331L250.552 444.117C249.427 443.769 248.309 443.429 247.191 443.065C242.033 441.41 236.949 439.558 231.942 437.508C228.12 435.948 224.342 434.275 220.608 432.489C220.574 432.479 220.542 432.463 220.515 432.441C219.733 432.077 218.943 431.697 218.162 431.309C218.06 431.254 217.951 431.198 217.841 431.143C214.926 429.702 212.042 428.193 209.189 426.615C206.789 421.034 203.413 419.966 201.318 415.058C200.708 413.6 200.267 412.075 200.005 410.514C200.005 410.498 199.997 410.482 199.997 410.459C200.216 413.403 199.067 405.234 199.989 410.427C199.981 410.332 199.973 410.229 199.966 410.11C199.942 409.825 199.911 409.477 199.864 409.042C197.183 382.531 197.355 352.213 196.19 327.23C196.112 325.615 196.031 324.068 195.948 322.591C195.925 322.1 195.893 321.617 195.862 321.142C195.917 321 195.979 320.849 196.05 320.707C196.065 320.666 196.083 320.626 196.104 320.588C196.127 320.539 196.153 320.491 196.182 320.446C196.198 320.422 196.222 320.39 196.237 320.366C196.249 320.339 196.262 320.313 196.276 320.287C196.347 320.176 196.425 320.058 196.511 319.947C196.55 319.899 196.581 319.86 196.62 319.82C196.647 319.78 196.679 319.743 196.714 319.709C196.738 319.671 196.767 319.637 196.8 319.606C196.831 319.575 196.862 319.535 196.902 319.496C196.918 319.471 196.939 319.449 196.964 319.432C197.026 319.36 197.094 319.294 197.167 319.234C197.446 318.975 197.744 318.736 198.058 318.522C198.168 318.451 198.285 318.38 198.394 318.3C199.182 317.823 200.012 317.42 200.872 317.097C201.169 316.986 201.466 316.883 201.787 316.773C201.904 316.741 202.013 316.701 202.131 316.662C202.303 316.606 202.475 316.551 202.654 316.511C203.545 316.242 204.507 316.013 205.546 315.799C205.671 315.775 205.804 315.751 205.937 315.72C206.125 315.68 206.32 315.649 206.516 315.617C206.781 315.569 207.055 315.522 207.328 315.474C209.65 315.102 212.284 314.825 215.192 314.643C215.465 314.627 215.739 314.612 216.012 314.596C216.333 314.58 216.653 314.564 216.982 314.548C217.255 314.532 217.537 314.524 217.818 314.517C218.091 314.501 218.373 314.493 218.662 314.485C219.452 314.461 220.264 314.437 221.093 314.422C223.453 314.374 225.939 314.39 228.55 314.445C229.761 314.477 230.996 314.509 232.262 314.564C232.348 314.564 232.427 314.572 232.505 314.572C233.607 314.612 234.717 314.659 235.858 314.722C236.655 314.762 237.46 314.802 238.265 314.849C239.023 314.897 239.789 314.944 240.563 314.999C241.165 315.031 241.767 315.079 242.377 315.118C242.892 315.158 243.408 315.197 243.924 315.229L244.628 315.276C245.011 315.308 245.394 315.332 245.785 315.371C246.644 315.443 247.504 315.514 248.38 315.585C249.247 315.664 250.13 315.744 251.014 315.823C251.897 315.902 252.788 315.989 253.679 316.076C253.773 316.084 253.859 316.092 253.945 316.1C254.758 316.187 255.57 316.266 256.391 316.353C256.579 316.369 256.774 316.385 256.962 316.408C257.744 316.488 258.542 316.581 259.332 316.666C259.574 316.693 259.815 316.718 260.058 316.745C260.677 316.814 261.286 316.873 261.909 316.947C262.73 317.042 263.567 317.129 264.379 317.24C265.012 317.311 265.646 317.382 266.279 317.461C267.271 317.58 268.28 317.707 269.288 317.841C269.671 317.889 270.054 317.936 270.437 317.992C273.313 318.356 276.221 318.759 279.176 319.179C283.654 319.82 288.203 320.517 292.784 321.269C297.372 322.021 301.986 322.815 306.626 323.652C307.799 323.865 308.971 324.079 310.151 324.301C310.683 324.404 311.214 324.506 311.746 324.609C312.653 324.776 313.559 324.95 314.466 325.124C315.373 325.298 316.279 325.472 317.186 325.654C318.265 325.868 319.351 326.082 320.43 326.295C327.535 327.72 334.601 329.24 341.495 330.831C342.628 331.093 343.761 331.362 344.887 331.623C347.138 332.153 349.368 332.692 351.578 333.238C352.187 333.38 352.789 333.531 353.391 333.681C354.892 334.061 356.393 334.441 357.87 334.829L358.128 334.9C359.214 335.169 360.277 335.446 361.34 335.731C363.849 336.396 366.317 337.069 368.742 337.75C370.352 338.201 371.944 338.658 373.518 339.119C375.871 339.808 378.176 340.505 380.42 341.209C380.975 341.383 381.53 341.558 382.077 341.724C383.718 342.238 385.336 342.761 386.907 343.283C388.158 343.695 389.377 344.114 390.581 344.534C391.785 344.954 392.965 345.373 394.122 345.793C394.864 346.062 395.599 346.347 396.334 346.616C397.389 347.012 398.428 347.408 399.445 347.803C399.757 347.922 400.062 348.049 400.367 348.167C400.562 348.255 400.75 348.326 400.937 348.405C401.305 348.555 401.68 348.698 402.04 348.848C402.407 348.991 402.766 349.141 403.126 349.299C403.478 349.442 403.837 349.592 404.181 349.743C404.533 349.885 404.877 350.036 405.221 350.194C405.51 350.313 405.791 350.439 406.065 350.566C406.62 350.811 407.175 351.057 407.714 351.31C407.98 351.437 408.246 351.555 408.511 351.682L409.121 351.967C409.207 352.015 409.293 352.054 409.379 352.094C409.574 352.189 409.778 352.292 409.973 352.387C410.426 352.6 410.872 352.83 411.31 353.044C411.896 353.345 412.466 353.645 413.014 353.938C413.569 354.239 414.108 354.54 414.624 354.833C414.71 354.88 414.788 354.928 414.874 354.975C414.991 355.039 415.108 355.11 415.226 355.173C415.624 355.403 416.007 355.64 416.39 355.87C417.141 356.337 417.852 356.796 418.516 357.255C418.665 357.358 418.805 357.461 418.954 357.556C419.446 357.912 419.915 358.26 420.353 358.617C420.353 358.624 420.353 358.624 420.361 358.624C420.509 358.735 420.65 358.854 420.791 358.965C420.908 359.076 421.033 359.171 421.15 359.281C421.557 359.638 421.932 359.978 422.276 360.326C422.391 360.434 422.501 360.548 422.604 360.667C422.65 360.705 422.692 360.747 422.729 360.793C422.886 360.952 423.026 361.11 423.159 361.268C423.18 361.29 423.198 361.314 423.214 361.34C423.401 361.561 423.573 361.783 423.738 362.005C423.816 362.115 423.902 362.226 423.972 362.337C424.066 362.472 424.16 362.614 424.238 362.749C424.308 362.86 424.371 362.978 424.433 363.089C424.599 363.374 424.74 363.674 424.855 363.984C424.943 364.194 425.014 364.411 425.066 364.633C425.126 364.843 425.17 365.057 425.199 365.274V365.274Z" fill="#001D26"/>
<path opacity="0.2" d="M425.199 365.274C425.191 366.659 425.176 368.599 425.113 370.997C425.105 371.33 425.09 371.67 425.082 372.018C425.004 375.383 424.887 379.539 424.722 384.233C424.715 384.518 424.707 384.795 424.691 385.08C424.472 390.811 424.128 397.484 423.534 408.052C422.432 427.573 420.509 410.736 418.579 417.583C413.217 414.242 407.339 410.744 401.055 407.15C399.921 406.501 398.778 405.849 397.623 405.194C385.055 398.094 371.017 390.653 356.361 383.283C355.783 382.99 355.197 382.697 354.618 382.412C321.047 365.606 284.405 349.26 254.719 338.352C248.989 336.246 243.518 334.346 238.375 332.676C227.541 329.169 218.177 326.715 210.971 325.654C203.467 324.546 198.285 324.942 196.19 327.23C196.112 325.615 196.031 324.068 195.948 322.591C195.917 322.1 195.885 321.617 195.854 321.142C195.902 321.012 195.965 320.887 196.026 320.762C196.034 320.744 196.041 320.725 196.05 320.707C196.065 320.666 196.083 320.626 196.104 320.588C196.127 320.539 196.153 320.491 196.182 320.446C196.208 320.389 196.239 320.336 196.276 320.287C196.347 320.176 196.425 320.058 196.511 319.947C196.574 319.864 196.642 319.785 196.714 319.709C196.738 319.671 196.767 319.637 196.8 319.606C196.831 319.575 196.862 319.535 196.902 319.496C196.918 319.471 196.939 319.449 196.964 319.432C197.026 319.36 197.094 319.294 197.167 319.234C197.446 318.975 197.744 318.736 198.058 318.522C198.168 318.451 198.285 318.379 198.394 318.3C199.182 317.823 200.012 317.42 200.872 317.097C201.169 316.986 201.466 316.883 201.787 316.772C201.904 316.741 202.013 316.701 202.131 316.662C202.303 316.606 202.475 316.551 202.654 316.511C203.545 316.242 204.507 316.013 205.546 315.799C205.859 315.736 206.187 315.672 206.516 315.617C206.781 315.569 207.055 315.522 207.328 315.474C209.65 315.102 212.284 314.825 215.192 314.643C215.465 314.627 215.739 314.611 216.012 314.596C216.333 314.58 216.653 314.564 216.982 314.548C217.255 314.532 217.536 314.524 217.818 314.516C218.091 314.501 218.373 314.493 218.662 314.485C219.451 314.461 220.264 314.437 221.093 314.421C223.453 314.382 225.939 314.398 228.55 314.453C229.761 314.477 230.996 314.516 232.262 314.572C232.341 314.572 232.426 314.58 232.505 314.58C233.607 314.611 234.724 314.667 235.858 314.722C236.655 314.762 237.46 314.801 238.265 314.849C239.023 314.896 239.789 314.944 240.563 314.999C241.165 315.031 241.767 315.079 242.377 315.118C242.892 315.158 243.408 315.197 243.924 315.229C244.542 315.276 245.159 315.324 245.784 315.371C246.644 315.443 247.504 315.514 248.379 315.585C249.247 315.664 250.13 315.743 251.014 315.823C251.897 315.902 252.788 315.989 253.679 316.076C253.773 316.084 253.859 316.092 253.945 316.1C254.758 316.187 255.57 316.266 256.391 316.353C260.94 316.82 265.622 317.366 270.437 317.992C273.313 318.364 276.226 318.762 279.176 319.187C283.654 319.828 288.203 320.525 292.784 321.269C297.372 322.021 301.986 322.815 306.626 323.652C307.799 323.865 308.971 324.079 310.151 324.301C311.59 324.57 313.028 324.844 314.466 325.124C315.373 325.298 316.279 325.472 317.186 325.654C318.265 325.868 319.351 326.082 320.43 326.295C327.535 327.72 334.601 329.24 341.495 330.831C342.628 331.093 343.761 331.362 344.887 331.623C347.138 332.153 349.368 332.692 351.578 333.238C352.187 333.388 352.789 333.539 353.391 333.689C354.9 334.069 356.393 334.449 357.87 334.829V334.837C357.956 334.853 358.042 334.876 358.128 334.9C359.206 335.177 360.277 335.454 361.34 335.739C363.849 336.404 366.317 337.074 368.742 337.75C370.352 338.209 371.947 338.66 373.518 339.119C375.871 339.816 378.177 340.513 380.42 341.209C380.975 341.383 381.53 341.558 382.077 341.724C383.718 342.246 385.328 342.766 386.907 343.283C388.158 343.695 389.377 344.114 390.581 344.534C391.785 344.954 392.965 345.373 394.122 345.793C394.872 346.062 395.607 346.339 396.334 346.608C397.397 347.004 398.428 347.4 399.445 347.803C399.757 347.922 400.062 348.049 400.367 348.167C400.937 348.389 401.492 348.619 402.04 348.848C402.407 348.991 402.767 349.141 403.126 349.299C403.478 349.442 403.837 349.592 404.181 349.743C404.533 349.885 404.877 350.036 405.221 350.194C405.51 350.313 405.791 350.439 406.065 350.566C406.62 350.811 407.175 351.057 407.714 351.31C407.98 351.437 408.246 351.555 408.511 351.682L409.121 351.967C409.207 352.015 409.293 352.054 409.379 352.094C410.043 352.41 410.684 352.727 411.31 353.044C411.896 353.344 412.467 353.645 413.014 353.938C413.662 354.286 414.28 354.627 414.874 354.975C414.991 355.038 415.108 355.11 415.226 355.173C415.624 355.403 416.007 355.64 416.39 355.87C417.141 356.337 417.852 356.796 418.516 357.255C419.173 357.714 419.783 358.165 420.353 358.617C420.353 358.624 420.353 358.624 420.361 358.624C420.634 358.846 420.9 359.068 421.15 359.281C421.557 359.638 421.932 359.978 422.276 360.326C422.391 360.434 422.501 360.547 422.604 360.667C422.65 360.705 422.692 360.747 422.729 360.793C422.893 360.976 423.058 361.158 423.214 361.34C423.402 361.561 423.573 361.783 423.738 362.005C423.816 362.115 423.902 362.226 423.972 362.337C424.066 362.472 424.16 362.614 424.238 362.749C424.308 362.859 424.371 362.978 424.433 363.089C424.599 363.374 424.74 363.674 424.855 363.984C424.941 364.195 425.011 364.412 425.066 364.633C425.126 364.843 425.17 365.057 425.199 365.274V365.274Z" fill="#155C73"/>
</g>
<defs>
<clipPath id="clip0_11_1514">
<rect width="615" height="453" fill="white"/>
</clipPath>
</defs>
</svg>
